<mxfile host="Electron" agent="Mozilla/5.0 (Windows NT 10.0; Win64; x64) AppleWebKit/537.36 (KHTML, like Gecko) draw.io/26.1.1 Chrome/132.0.6834.210 Electron/34.3.3 Safari/537.36" version="26.1.1">
  <diagram name="Page-1" id="V7CSt6iJTu72ckD1klMw">
    <mxGraphModel dx="763" dy="621" grid="1" gridSize="10" guides="1" tooltips="1" connect="1" arrows="1" fold="1" page="1" pageScale="1" pageWidth="3300" pageHeight="4681" math="0" shadow="0">
      <root>
        <mxCell id="0" />
        <mxCell id="1" parent="0" />
        <mxCell id="tc8X1xjHQRMR5KrgHFPp-10" style="edgeStyle=orthogonalEdgeStyle;rounded=0;orthogonalLoop=1;jettySize=auto;html=1;exitX=0;exitY=0.5;exitDx=0;exitDy=0;entryX=1;entryY=0.5;entryDx=0;entryDy=0;" edge="1" parent="1" source="tc8X1xjHQRMR5KrgHFPp-1" target="tc8X1xjHQRMR5KrgHFPp-9">
          <mxGeometry relative="1" as="geometry" />
        </mxCell>
        <mxCell id="tc8X1xjHQRMR5KrgHFPp-11" style="edgeStyle=orthogonalEdgeStyle;rounded=0;orthogonalLoop=1;jettySize=auto;html=1;exitX=0.25;exitY=1;exitDx=0;exitDy=0;entryX=0.5;entryY=0;entryDx=0;entryDy=0;" edge="1" parent="1" source="tc8X1xjHQRMR5KrgHFPp-1" target="tc8X1xjHQRMR5KrgHFPp-2">
          <mxGeometry relative="1" as="geometry" />
        </mxCell>
        <mxCell id="tc8X1xjHQRMR5KrgHFPp-12" style="edgeStyle=orthogonalEdgeStyle;rounded=0;orthogonalLoop=1;jettySize=auto;html=1;exitX=0.75;exitY=1;exitDx=0;exitDy=0;entryX=0.5;entryY=0;entryDx=0;entryDy=0;" edge="1" parent="1" source="tc8X1xjHQRMR5KrgHFPp-1" target="tc8X1xjHQRMR5KrgHFPp-3">
          <mxGeometry relative="1" as="geometry" />
        </mxCell>
        <mxCell id="tc8X1xjHQRMR5KrgHFPp-21" style="edgeStyle=orthogonalEdgeStyle;rounded=0;orthogonalLoop=1;jettySize=auto;html=1;exitX=1;exitY=0.75;exitDx=0;exitDy=0;entryX=0;entryY=0.5;entryDx=0;entryDy=0;" edge="1" parent="1" source="tc8X1xjHQRMR5KrgHFPp-1" target="tc8X1xjHQRMR5KrgHFPp-20">
          <mxGeometry relative="1" as="geometry" />
        </mxCell>
        <mxCell id="tc8X1xjHQRMR5KrgHFPp-24" style="edgeStyle=orthogonalEdgeStyle;rounded=0;orthogonalLoop=1;jettySize=auto;html=1;exitX=0.75;exitY=0;exitDx=0;exitDy=0;entryX=0.5;entryY=1;entryDx=0;entryDy=0;" edge="1" parent="1" source="tc8X1xjHQRMR5KrgHFPp-1" target="tc8X1xjHQRMR5KrgHFPp-22">
          <mxGeometry relative="1" as="geometry" />
        </mxCell>
        <mxCell id="tc8X1xjHQRMR5KrgHFPp-26" style="edgeStyle=orthogonalEdgeStyle;rounded=0;orthogonalLoop=1;jettySize=auto;html=1;exitX=0.25;exitY=0;exitDx=0;exitDy=0;entryX=0.5;entryY=1;entryDx=0;entryDy=0;" edge="1" parent="1" source="tc8X1xjHQRMR5KrgHFPp-1" target="tc8X1xjHQRMR5KrgHFPp-25">
          <mxGeometry relative="1" as="geometry" />
        </mxCell>
        <mxCell id="tc8X1xjHQRMR5KrgHFPp-28" style="edgeStyle=orthogonalEdgeStyle;rounded=0;orthogonalLoop=1;jettySize=auto;html=1;exitX=1;exitY=0.25;exitDx=0;exitDy=0;entryX=0;entryY=0.5;entryDx=0;entryDy=0;" edge="1" parent="1" source="tc8X1xjHQRMR5KrgHFPp-1" target="tc8X1xjHQRMR5KrgHFPp-27">
          <mxGeometry relative="1" as="geometry" />
        </mxCell>
        <mxCell id="tc8X1xjHQRMR5KrgHFPp-1" value="MainViewModel" style="rounded=0;whiteSpace=wrap;html=1;" vertex="1" parent="1">
          <mxGeometry x="850" y="230" width="120" height="60" as="geometry" />
        </mxCell>
        <mxCell id="tc8X1xjHQRMR5KrgHFPp-13" style="edgeStyle=orthogonalEdgeStyle;rounded=0;orthogonalLoop=1;jettySize=auto;html=1;exitX=0.5;exitY=1;exitDx=0;exitDy=0;entryX=0.5;entryY=0;entryDx=0;entryDy=0;" edge="1" parent="1" source="tc8X1xjHQRMR5KrgHFPp-2" target="tc8X1xjHQRMR5KrgHFPp-5">
          <mxGeometry relative="1" as="geometry" />
        </mxCell>
        <mxCell id="tc8X1xjHQRMR5KrgHFPp-36" style="edgeStyle=orthogonalEdgeStyle;rounded=0;orthogonalLoop=1;jettySize=auto;html=1;exitX=0;exitY=0.5;exitDx=0;exitDy=0;" edge="1" parent="1" source="tc8X1xjHQRMR5KrgHFPp-2" target="tc8X1xjHQRMR5KrgHFPp-32">
          <mxGeometry relative="1" as="geometry" />
        </mxCell>
        <mxCell id="tc8X1xjHQRMR5KrgHFPp-2" value="GridViewModel" style="rounded=0;whiteSpace=wrap;html=1;" vertex="1" parent="1">
          <mxGeometry x="760" y="350" width="120" height="60" as="geometry" />
        </mxCell>
        <mxCell id="tc8X1xjHQRMR5KrgHFPp-16" style="edgeStyle=orthogonalEdgeStyle;rounded=0;orthogonalLoop=1;jettySize=auto;html=1;exitX=0.5;exitY=1;exitDx=0;exitDy=0;entryX=0.5;entryY=0;entryDx=0;entryDy=0;" edge="1" parent="1" source="tc8X1xjHQRMR5KrgHFPp-3" target="tc8X1xjHQRMR5KrgHFPp-8">
          <mxGeometry relative="1" as="geometry" />
        </mxCell>
        <mxCell id="tc8X1xjHQRMR5KrgHFPp-3" value="DigitSelectionViewModel" style="rounded=0;whiteSpace=wrap;html=1;" vertex="1" parent="1">
          <mxGeometry x="920" y="350" width="170" height="60" as="geometry" />
        </mxCell>
        <mxCell id="tc8X1xjHQRMR5KrgHFPp-14" style="edgeStyle=orthogonalEdgeStyle;rounded=0;orthogonalLoop=1;jettySize=auto;html=1;exitX=0.5;exitY=1;exitDx=0;exitDy=0;entryX=0.5;entryY=0;entryDx=0;entryDy=0;" edge="1" parent="1" source="tc8X1xjHQRMR5KrgHFPp-5" target="tc8X1xjHQRMR5KrgHFPp-6">
          <mxGeometry relative="1" as="geometry" />
        </mxCell>
        <mxCell id="tc8X1xjHQRMR5KrgHFPp-35" style="edgeStyle=orthogonalEdgeStyle;rounded=0;orthogonalLoop=1;jettySize=auto;html=1;exitX=0;exitY=0.5;exitDx=0;exitDy=0;entryX=1;entryY=0.25;entryDx=0;entryDy=0;" edge="1" parent="1" source="tc8X1xjHQRMR5KrgHFPp-5" target="tc8X1xjHQRMR5KrgHFPp-32">
          <mxGeometry relative="1" as="geometry" />
        </mxCell>
        <mxCell id="tc8X1xjHQRMR5KrgHFPp-5" value="BoxViewModel" style="rounded=0;whiteSpace=wrap;html=1;" vertex="1" parent="1">
          <mxGeometry x="760" y="450" width="120" height="60" as="geometry" />
        </mxCell>
        <mxCell id="tc8X1xjHQRMR5KrgHFPp-15" style="edgeStyle=orthogonalEdgeStyle;rounded=0;orthogonalLoop=1;jettySize=auto;html=1;exitX=0.5;exitY=1;exitDx=0;exitDy=0;entryX=0.5;entryY=0;entryDx=0;entryDy=0;" edge="1" parent="1" source="tc8X1xjHQRMR5KrgHFPp-6" target="tc8X1xjHQRMR5KrgHFPp-7">
          <mxGeometry relative="1" as="geometry" />
        </mxCell>
        <mxCell id="tc8X1xjHQRMR5KrgHFPp-33" style="edgeStyle=orthogonalEdgeStyle;rounded=0;orthogonalLoop=1;jettySize=auto;html=1;exitX=0;exitY=0.5;exitDx=0;exitDy=0;entryX=1;entryY=0.5;entryDx=0;entryDy=0;" edge="1" parent="1" source="tc8X1xjHQRMR5KrgHFPp-6" target="tc8X1xjHQRMR5KrgHFPp-32">
          <mxGeometry relative="1" as="geometry" />
        </mxCell>
        <mxCell id="tc8X1xjHQRMR5KrgHFPp-6" value="CellViewModel" style="rounded=0;whiteSpace=wrap;html=1;" vertex="1" parent="1">
          <mxGeometry x="760" y="550" width="120" height="60" as="geometry" />
        </mxCell>
        <mxCell id="tc8X1xjHQRMR5KrgHFPp-34" style="edgeStyle=orthogonalEdgeStyle;rounded=0;orthogonalLoop=1;jettySize=auto;html=1;exitX=0;exitY=0.5;exitDx=0;exitDy=0;entryX=1;entryY=0.75;entryDx=0;entryDy=0;" edge="1" parent="1" source="tc8X1xjHQRMR5KrgHFPp-7" target="tc8X1xjHQRMR5KrgHFPp-32">
          <mxGeometry relative="1" as="geometry" />
        </mxCell>
        <mxCell id="tc8X1xjHQRMR5KrgHFPp-7" value="CandidateViewModel" style="rounded=0;whiteSpace=wrap;html=1;" vertex="1" parent="1">
          <mxGeometry x="750" y="640" width="140" height="60" as="geometry" />
        </mxCell>
        <mxCell id="tc8X1xjHQRMR5KrgHFPp-8" value="DigitViewModel" style="rounded=0;whiteSpace=wrap;html=1;" vertex="1" parent="1">
          <mxGeometry x="945" y="450" width="120" height="60" as="geometry" />
        </mxCell>
        <mxCell id="tc8X1xjHQRMR5KrgHFPp-9" value="UndoManagerViewModel" style="rounded=0;whiteSpace=wrap;html=1;" vertex="1" parent="1">
          <mxGeometry x="640" y="230" width="170" height="60" as="geometry" />
        </mxCell>
        <mxCell id="tc8X1xjHQRMR5KrgHFPp-17" value="PuzzleService&lt;div&gt;(incl. solver&lt;span style=&quot;background-color: transparent; color: light-dark(rgb(0, 0, 0), rgb(255, 255, 255));&quot;&gt;)&lt;/span&gt;&lt;/div&gt;" style="rounded=1;whiteSpace=wrap;html=1;" vertex="1" parent="1">
          <mxGeometry x="1160" y="390" width="120" height="60" as="geometry" />
        </mxCell>
        <mxCell id="tc8X1xjHQRMR5KrgHFPp-19" value="HighlightService" style="rounded=1;whiteSpace=wrap;html=1;" vertex="1" parent="1">
          <mxGeometry x="1160" y="470" width="120" height="60" as="geometry" />
        </mxCell>
        <mxCell id="tc8X1xjHQRMR5KrgHFPp-20" value="SettingsViewModel" style="rounded=0;whiteSpace=wrap;html=1;" vertex="1" parent="1">
          <mxGeometry x="1090" y="260" width="120" height="60" as="geometry" />
        </mxCell>
        <mxCell id="tc8X1xjHQRMR5KrgHFPp-22" value="HintViewModel" style="rounded=0;whiteSpace=wrap;html=1;" vertex="1" parent="1">
          <mxGeometry x="930" y="70" width="120" height="60" as="geometry" />
        </mxCell>
        <mxCell id="tc8X1xjHQRMR5KrgHFPp-25" value="VictoryViewModel" style="rounded=0;whiteSpace=wrap;html=1;" vertex="1" parent="1">
          <mxGeometry x="770" y="70" width="120" height="60" as="geometry" />
        </mxCell>
        <mxCell id="tc8X1xjHQRMR5KrgHFPp-27" value="NotificationViewModel" style="rounded=0;whiteSpace=wrap;html=1;" vertex="1" parent="1">
          <mxGeometry x="1090" y="190" width="150" height="60" as="geometry" />
        </mxCell>
        <mxCell id="tc8X1xjHQRMR5KrgHFPp-29" value="Strategy" style="rounded=0;whiteSpace=wrap;html=1;" vertex="1" parent="1">
          <mxGeometry x="1490" y="200" width="120" height="60" as="geometry" />
        </mxCell>
        <mxCell id="tc8X1xjHQRMR5KrgHFPp-30" value="GridCommand" style="rounded=0;whiteSpace=wrap;html=1;" vertex="1" parent="1">
          <mxGeometry x="1410" y="310" width="120" height="60" as="geometry" />
        </mxCell>
        <mxCell id="tc8X1xjHQRMR5KrgHFPp-31" value="Visualizer" style="rounded=0;whiteSpace=wrap;html=1;" vertex="1" parent="1">
          <mxGeometry x="1590" y="310" width="120" height="60" as="geometry" />
        </mxCell>
        <mxCell id="tc8X1xjHQRMR5KrgHFPp-32" value="WrappeViewModel" style="rounded=0;whiteSpace=wrap;html=1;" vertex="1" parent="1">
          <mxGeometry x="530" y="550" width="120" height="60" as="geometry" />
        </mxCell>
      </root>
    </mxGraphModel>
  </diagram>
</mxfile>
